<?xml version="1.0" encoding="utf-8"?>
<!-- Generator: Adobe Illustrator 18.0.0, SVG Export Plug-In . SVG Version: 6.00 Build 0)  -->
<!DOCTYPE svg PUBLIC "-//W3C//DTD SVG 1.1//EN" "http://www.w3.org/Graphics/SVG/1.1/DTD/svg11.dtd">
<svg version="1.1" id="Layer_1" xmlns="http://www.w3.org/2000/svg" xmlns:xlink="http://www.w3.org/1999/xlink" x="0px" y="0px"
	 viewBox="0 0 300 300" enable-background="new 0 0 300 300" xml:space="preserve">
<g>
	<circle fill="#2D3E4F" cx="150" cy="150" r="30.8"/>
	<path fill="#2D3E4F" d="M199.2,150.2c0,27.2-22,49.1-49.2,49.1c-27.2,0-49.2-21.9-49.2-49.1c0-4.3,0.6-8.2,1.6-12.2H88v67.4
		c0,3.4,3.2,6.6,6.6,6.6h110.7c3.4,0,6.6-3.2,6.6-6.6V138h-14.4C198.6,142,199.2,145.9,199.2,150.2z"/>
	<path fill="#2D3E4F" d="M150,2.5C68.5,2.5,2.5,68.5,2.5,150s66,147.5,147.5,147.5s147.5-66,147.5-147.5S231.5,2.5,150,2.5z
		 M230,211.5c0,10.2-8.3,18.5-18.5,18.5h-123c-10.2,0-18.5-8.3-18.5-18.5v-123C70,78.3,78.3,70,88.5,70h123
		c10.2,0,18.5,8.3,18.5,18.5V211.5z"/>
	<path fill="#2D3E4F" d="M205.4,88h-18.5c-3.4,0-5.9,3.2-5.9,6.6v18.5c0,3.4,2.5,5.9,5.9,5.9h18.5c3.4,0,6.6-2.5,6.6-5.9V94.6
		C212,91.2,208.8,88,205.4,88z"/>
</g>
</svg>
