<?xml version="1.0" encoding="utf-8"?>
<!-- Generator: Adobe Illustrator 18.0.0, SVG Export Plug-In . SVG Version: 6.00 Build 0)  -->
<!DOCTYPE svg PUBLIC "-//W3C//DTD SVG 1.1//EN" "http://www.w3.org/Graphics/SVG/1.1/DTD/svg11.dtd">
<svg version="1.1" id="Layer_1" xmlns="http://www.w3.org/2000/svg" xmlns:xlink="http://www.w3.org/1999/xlink" x="0px" y="0px"
	 viewBox="0 0 512 512" enable-background="new 0 0 512 512" xml:space="preserve">
<path fill="#2D3E4F" d="M256,89.5C164,89.5,89.5,164,89.5,256S164,422.5,256,422.5S422.5,348,422.5,256S348,89.5,256,89.5z
	 M341.6,212.3c0.1,1.9,0.1,3.8,0.1,5.7c0,58.5-44.5,126-125.9,126c-25,0-48.3-7.3-67.9-19.9c3.5,0.4,7,0.6,10.6,0.6
	c20.7,0,39.8-7.1,55-18.9c-19.4-0.4-35.7-13.2-41.4-30.7c2.7,0.5,5.5,0.8,8.3,0.8c4,0,7.9-0.5,11.7-1.6c-20.3-4.1-35.5-22-35.5-43.4
	c0-0.2,0-0.4,0-0.6c6,3.3,12.8,5.3,20.1,5.5c-11.9-7.9-19.7-21.5-19.7-36.8c0-8.1,2.2-15.7,6-22.3c21.8,26.8,54.5,44.4,91.2,46.3
	c-0.8-3.2-1.1-6.6-1.1-10.1c0-24.4,19.8-44.3,44.3-44.3c12.7,0,24.2,5.4,32.3,14c10.1-2,19.6-5.7,28.1-10.7
	c-3.3,10.3-10.3,19-19.5,24.5c9-1.1,17.5-3.4,25.4-7C357.7,198.3,350.2,206.1,341.6,212.3z"/>
</svg>
