<?xml version="1.0" encoding="utf-8"?>
<!-- Generator: Adobe Illustrator 18.0.0, SVG Export Plug-In . SVG Version: 6.00 Build 0)  -->
<!DOCTYPE svg PUBLIC "-//W3C//DTD SVG 1.1//EN" "http://www.w3.org/Graphics/SVG/1.1/DTD/svg11.dtd">
<svg version="1.1" id="Layer_1" xmlns="http://www.w3.org/2000/svg" xmlns:xlink="http://www.w3.org/1999/xlink" x="0px" y="0px"
	 viewBox="0 0 300 300" enable-background="new 0 0 300 300" xml:space="preserve">
<path fill="#2D3E4F" d="M150,2.5C68.5,2.5,2.5,68.5,2.5,150s66,147.5,147.5,147.5s147.5-66,147.5-147.5S231.5,2.5,150,2.5z M69.4,92
	h161.3c4.6,0,8.6,2.5,11,6l-88.4,57.9c-0.9,0.6-2,1-3.1,1c-1.1,0-2.1-0.2-3.1-0.8L58.5,97.8C60.8,94.4,64.8,92,69.4,92z M244,194.5
	c0,7.3-6,13.5-13.4,13.5H69.4C62,208,56,201.8,56,194.5v-76.9l81.4,53.2c3.9,2.5,8.4,3.8,12.8,3.8c4.4,0,9-1.3,12.8-3.8l81-53V194.5
	z"/>
</svg>
