<?xml version="1.0" encoding="utf-8"?>
<!-- Generator: Adobe Illustrator 18.0.0, SVG Export Plug-In . SVG Version: 6.00 Build 0)  -->
<!DOCTYPE svg PUBLIC "-//W3C//DTD SVG 1.1//EN" "http://www.w3.org/Graphics/SVG/1.1/DTD/svg11.dtd">
<svg version="1.1" id="Layer_1" xmlns="http://www.w3.org/2000/svg" xmlns:xlink="http://www.w3.org/1999/xlink" x="0px" y="0px"
	 viewBox="0 0 300 300" enable-background="new 0 0 300 300" xml:space="preserve">
<path fill="#2D3E4F" d="M150,2.5C68.5,2.5,2.5,68.5,2.5,150s66,147.5,147.5,147.5s147.5-66,147.5-147.5S231.5,2.5,150,2.5z
	 M225.8,111.3c0.1,1.7,0.1,3.4,0.1,5.1c0,51.8-39.4,111.6-111.6,111.6c-22.1,0-42.8-6.5-60.1-17.6c3.1,0.4,6.2,0.5,9.4,0.5
	c18.4,0,35.3-6.3,48.7-16.8c-17.2-0.3-31.6-11.7-36.6-27.2c2.4,0.5,4.9,0.7,7.4,0.7c3.6,0,7-0.5,10.3-1.4
	c-17.9-3.6-31.5-19.5-31.5-38.5c0-0.2,0-0.3,0-0.5c5.3,2.9,11.3,4.7,17.8,4.9c-10.5-7-17.4-19-17.4-32.6c0-7.2,1.9-13.9,5.3-19.7
	c19.3,23.7,48.2,39.3,80.8,41c-0.7-2.9-1-5.9-1-8.9c0-21.7,17.6-39.2,39.2-39.2c11.3,0,21.5,4.8,28.6,12.4c8.9-1.8,17.3-5,24.9-9.5
	c-2.9,9.2-9.1,16.8-17.2,21.7c7.9-0.9,15.5-3.1,22.5-6.2C240.1,98.9,233.5,105.8,225.8,111.3z"/>
</svg>
