<?xml version="1.0" encoding="utf-8"?>
<!-- Generator: Adobe Illustrator 18.0.0, SVG Export Plug-In . SVG Version: 6.00 Build 0)  -->
<!DOCTYPE svg PUBLIC "-//W3C//DTD SVG 1.1//EN" "http://www.w3.org/Graphics/SVG/1.1/DTD/svg11.dtd">
<svg version="1.1" id="Layer_1" xmlns="http://www.w3.org/2000/svg" xmlns:xlink="http://www.w3.org/1999/xlink" x="0px" y="0px"
	 viewBox="0 0 512 512" enable-background="new 0 0 512 512" xml:space="preserve">
<path fill="#2D3E4F" d="M256,89.5C164,89.5,89.5,164,89.5,256S164,422.5,256,422.5S422.5,348,422.5,256S348,89.5,256,89.5z"/>
<path fill-rule="evenodd" clip-rule="evenodd" fill="#FFFFFF" d="M324.9,242.2h-15.6c1.1,4.4,1.8,9,1.8,13.8
	c0,30.5-24.7,55.1-55.1,55.1c-30.4,0-55.1-24.7-55.1-55.1c0-4.8,0.7-9.4,1.8-13.8h-15.6V318c0,3.8,3.1,6.9,6.9,6.9h124
	c3.8,0,6.9-3.1,6.9-6.9V242.2z M324.9,194c0-3.8-3.1-6.9-6.9-6.9h-20.7c-3.8,0-6.9,3.1-6.9,6.9v20.7c0,3.8,3.1,6.9,6.9,6.9H318
	c3.8,0,6.9-3.1,6.9-6.9V194z M256,221.5c-19,0-34.5,15.4-34.5,34.5c0,19,15.4,34.5,34.5,34.5s34.5-15.4,34.5-34.5
	C290.5,237,275,221.5,256,221.5 M324.9,345.6H187.1c-11.4,0-20.7-9.3-20.7-20.7V187.1c0-11.4,9.3-20.7,20.7-20.7h137.8
	c11.4,0,20.7,9.3,20.7,20.7v137.8C345.6,336.3,336.3,345.6,324.9,345.6"/>
</svg>
